# xmcd
#
# Track frame offsets:
#	150
#	14832
#	34363
#	50321
#	69138
#	84849
#	104051
#	125592
#	147055
#	162826
#	182462
#	202132
#	212781
#	233770
#	251706
#	271071
#	288439
#	307784
#	320823
#	337873
#
# Disc length: 4717 seconds
#
# Revision: 0
# Processed by: cddbd v1.5.1PL0 Copyright (c) Steve Scherf et al.
# Submitted via: dBpowerAMP V4.0
#
DISCID=20126b14
DTITLE=Marco Antonio Solis - 20 Grandes Éxitos
DYEAR=1900
DGENRE=Latin
TTITLE0=Tu amor o to desprecio
TTITLE1=Que te quieran más que yo
TTITLE2=Prefiero partir
TTITLE3=El peor de mis fracasos
TTITLE4=Inventame
TTITLE5=Donde estará mi primavera
TTITLE6=O me voy o te vas
TTITLE7=Si no te hubieras ido
TTITLE8=Más que tu amigo
TTITLE9=Tu hombre perfecto
TTITLE10=Si te pudiera mentir
TTITLE11=Ni allá donde te fuistes
TTITLE12=Cuando te acuerdes de mí
TTITLE13=Sigue sin mí
TTITLE14=Se que me vas a dejar
TTITLE15=Ahorita nismo te me vas
TTITLE16=A que me quedo contigo
TTITLE17=Las noches las hago días
TTITLE18=Resignación
TTITLE19=Con la vida comprada
EXTD=
EXTT0=
EXTT1=
EXTT2=
EXTT3=
EXTT4=
EXTT5=
EXTT6=
EXTT7=
EXTT8=
EXTT9=
EXTT10=
EXTT11=
EXTT12=
EXTT13=
EXTT14=
EXTT15=
EXTT16=
EXTT17=
EXTT18=
EXTT19=
PLAYORDER=
